<svg width="410" height="70" viewBox="0 0 410 70" fill="none" xmlns="http://www.w3.org/2000/svg">
<g clip-path="url(#clip0_78_280)">
<rect width="410" height="70" rx="35" fill="#03A256"/>
<path d="M174.8 43H172.09V30.61H165.81V43H163.11V28.54H174.8V43ZM181.85 32.58C182.61 32.58 183.3 32.7033 183.92 32.95C184.547 33.1967 185.08 33.5467 185.52 34C185.967 34.4533 186.31 35.0067 186.55 35.66C186.79 36.3133 186.91 37.0433 186.91 37.85C186.91 38.6633 186.79 39.3967 186.55 40.05C186.31 40.7033 185.967 41.26 185.52 41.72C185.08 42.18 184.547 42.5333 183.92 42.78C183.3 43.0267 182.61 43.15 181.85 43.15C181.083 43.15 180.387 43.0267 179.76 42.78C179.133 42.5333 178.597 42.18 178.15 41.72C177.71 41.26 177.367 40.7033 177.12 40.05C176.88 39.3967 176.76 38.6633 176.76 37.85C176.76 37.0433 176.88 36.3133 177.12 35.66C177.367 35.0067 177.71 34.4533 178.15 34C178.597 33.5467 179.133 33.1967 179.76 32.95C180.387 32.7033 181.083 32.58 181.85 32.58ZM181.85 41.25C182.703 41.25 183.333 40.9633 183.74 40.39C184.153 39.8167 184.36 38.9767 184.36 37.87C184.36 36.7633 184.153 35.92 183.74 35.34C183.333 34.76 182.703 34.47 181.85 34.47C180.983 34.47 180.34 34.7633 179.92 35.35C179.507 35.93 179.3 36.77 179.3 37.87C179.3 38.97 179.507 39.81 179.92 40.39C180.34 40.9633 180.983 41.25 181.85 41.25ZM193.164 32.58C193.811 32.58 194.408 32.6833 194.954 32.89C195.501 33.0967 195.971 33.4 196.364 33.8C196.758 34.1933 197.064 34.68 197.284 35.26C197.511 35.8333 197.624 36.49 197.624 37.23C197.624 37.6033 197.584 37.8567 197.504 37.99C197.424 38.1167 197.271 38.18 197.044 38.18H190.694C190.734 38.7067 190.828 39.1633 190.974 39.55C191.121 39.93 191.314 40.2467 191.554 40.5C191.794 40.7467 192.078 40.9333 192.404 41.06C192.738 41.18 193.104 41.24 193.504 41.24C193.904 41.24 194.248 41.1933 194.534 41.1C194.828 41.0067 195.081 40.9033 195.294 40.79C195.514 40.6767 195.704 40.5733 195.864 40.48C196.031 40.3867 196.191 40.34 196.344 40.34C196.551 40.34 196.704 40.4167 196.804 40.57L197.514 41.47C197.241 41.79 196.934 42.06 196.594 42.28C196.254 42.4933 195.898 42.6667 195.524 42.8C195.158 42.9267 194.781 43.0167 194.394 43.07C194.014 43.1233 193.644 43.15 193.284 43.15C192.571 43.15 191.908 43.0333 191.294 42.8C190.681 42.56 190.148 42.21 189.694 41.75C189.241 41.2833 188.884 40.71 188.624 40.03C188.364 39.3433 188.234 38.55 188.234 37.65C188.234 36.95 188.348 36.2933 188.574 35.68C188.801 35.06 189.124 34.5233 189.544 34.07C189.971 33.61 190.488 33.2467 191.094 32.98C191.708 32.7133 192.398 32.58 193.164 32.58ZM193.214 34.35C192.494 34.35 191.931 34.5533 191.524 34.96C191.118 35.3667 190.858 35.9433 190.744 36.69H195.404C195.404 36.37 195.358 36.07 195.264 35.79C195.178 35.5033 195.044 35.2533 194.864 35.04C194.684 34.8267 194.454 34.66 194.174 34.54C193.901 34.4133 193.581 34.35 193.214 34.35ZM201.672 37.71L198.302 32.74H200.682C200.862 32.74 200.995 32.7667 201.082 32.82C201.168 32.8667 201.245 32.9467 201.312 33.06L203.462 36.49C203.495 36.3767 203.535 36.2633 203.582 36.15C203.635 36.0367 203.698 35.9233 203.772 35.81L205.502 33.11C205.648 32.8633 205.838 32.74 206.072 32.74H208.342L204.962 37.6L208.482 43H206.102C205.922 43 205.775 42.9533 205.662 42.86C205.555 42.7667 205.465 42.66 205.392 42.54L203.212 38.97C203.152 39.21 203.068 39.41 202.962 39.57L201.042 42.54C200.968 42.6533 200.878 42.76 200.772 42.86C200.665 42.9533 200.532 43 200.372 43H198.162L201.672 37.71ZM216.481 43C216.247 43 216.067 42.9667 215.941 42.9C215.814 42.8267 215.714 42.6833 215.641 42.47L215.421 41.74C215.161 41.9733 214.907 42.18 214.661 42.36C214.414 42.5333 214.157 42.68 213.891 42.8C213.624 42.92 213.337 43.01 213.031 43.07C212.731 43.13 212.397 43.16 212.031 43.16C211.597 43.16 211.197 43.1033 210.831 42.99C210.464 42.87 210.147 42.6933 209.881 42.46C209.614 42.2267 209.407 41.9367 209.261 41.59C209.114 41.2433 209.041 40.84 209.041 40.38C209.041 39.9933 209.141 39.6133 209.341 39.24C209.547 38.86 209.887 38.52 210.361 38.22C210.834 37.9133 211.464 37.66 212.251 37.46C213.037 37.26 214.017 37.1467 215.191 37.12V36.52C215.191 35.8333 215.044 35.3267 214.751 35C214.457 34.6667 214.034 34.5 213.481 34.5C213.081 34.5 212.747 34.5467 212.481 34.64C212.221 34.7333 211.991 34.84 211.791 34.96C211.591 35.0733 211.407 35.1767 211.241 35.27C211.081 35.3633 210.901 35.41 210.701 35.41C210.527 35.41 210.381 35.3667 210.261 35.28C210.141 35.1867 210.044 35.08 209.971 34.96L209.531 34.17C210.711 33.09 212.131 32.55 213.791 32.55C214.391 32.55 214.927 32.65 215.401 32.85C215.874 33.0433 216.274 33.3167 216.601 33.67C216.927 34.0167 217.174 34.4333 217.341 34.92C217.514 35.4067 217.601 35.94 217.601 36.52V43H216.481ZM212.791 41.46C213.297 41.46 213.734 41.37 214.101 41.19C214.474 41.0033 214.837 40.7233 215.191 40.35V38.62C214.471 38.6533 213.867 38.7167 213.381 38.81C212.901 38.8967 212.514 39.01 212.221 39.15C211.927 39.29 211.717 39.4533 211.591 39.64C211.464 39.8267 211.401 40.03 211.401 40.25C211.401 40.6833 211.527 40.9933 211.781 41.18C212.041 41.3667 212.377 41.46 212.791 41.46ZM229.447 32.74V43H226.977V34.63H224.457C224.377 35.89 224.254 36.9767 224.087 37.89C223.92 38.7967 223.72 39.5667 223.487 40.2C223.26 40.8333 223.004 41.3433 222.717 41.73C222.437 42.11 222.137 42.4067 221.817 42.62C221.497 42.8333 221.167 42.9733 220.827 43.04C220.487 43.1133 220.144 43.15 219.797 43.15C219.43 43.15 219.16 43.1167 218.987 43.05C218.82 42.99 218.737 42.9033 218.737 42.79V41.25H219.327C219.547 41.25 219.767 41.2167 219.987 41.15C220.207 41.0833 220.42 40.9467 220.627 40.74C220.834 40.5333 221.03 40.24 221.217 39.86C221.404 39.4733 221.574 38.9667 221.727 38.34C221.887 37.7067 222.027 36.9333 222.147 36.02C222.267 35.1067 222.36 34.0133 222.427 32.74H229.447ZM231.88 43.01V32.75H234.35V38.74C234.35 38.8933 234.34 39.0633 234.32 39.25C234.307 39.43 234.287 39.6133 234.26 39.8C234.407 39.4733 234.553 39.2033 234.7 38.99C234.707 38.9767 234.77 38.8867 234.89 38.72C235.01 38.5533 235.163 38.3367 235.35 38.07C235.543 37.8033 235.76 37.5033 236 37.17C236.24 36.83 236.483 36.4833 236.73 36.13C237.31 35.31 237.97 34.3833 238.71 33.35C238.803 33.2033 238.927 33.0667 239.08 32.94C239.233 32.8067 239.407 32.74 239.6 32.74H241.1V43H238.63V37.01C238.63 36.8567 238.637 36.69 238.65 36.51C238.663 36.33 238.687 36.1467 238.72 35.96C238.647 36.1133 238.573 36.26 238.5 36.4C238.427 36.5333 238.353 36.6533 238.28 36.76C238.267 36.7733 238.2 36.8667 238.08 37.04C237.96 37.2067 237.803 37.4233 237.61 37.69C237.423 37.9567 237.21 38.26 236.97 38.6C236.73 38.9333 236.487 39.2733 236.24 39.62C235.66 40.44 235.003 41.3667 234.27 42.4C234.177 42.54 234.053 42.6767 233.9 42.81C233.753 42.9433 233.583 43.01 233.39 43.01H231.88ZM246.3 28.54V34.26C246.3 34.8667 246.27 35.4633 246.21 36.05C246.15 36.63 246.074 37.2467 245.98 37.9H244.3C244.207 37.2467 244.13 36.63 244.07 36.05C244.01 35.4633 243.98 34.8667 243.98 34.26V28.54H246.3ZM243.59 41.64C243.59 41.4333 243.627 41.2367 243.7 41.05C243.78 40.8633 243.887 40.7033 244.02 40.57C244.16 40.4367 244.324 40.33 244.51 40.25C244.697 40.17 244.897 40.13 245.11 40.13C245.317 40.13 245.514 40.17 245.7 40.25C245.887 40.33 246.047 40.4367 246.18 40.57C246.32 40.7033 246.43 40.8633 246.51 41.05C246.59 41.2367 246.63 41.4333 246.63 41.64C246.63 41.8533 246.59 42.0533 246.51 42.24C246.43 42.42 246.32 42.5767 246.18 42.71C246.047 42.8433 245.887 42.9467 245.7 43.02C245.514 43.1 245.317 43.14 245.11 43.14C244.897 43.14 244.697 43.1 244.51 43.02C244.324 42.9467 244.16 42.8433 244.02 42.71C243.887 42.5767 243.78 42.42 243.7 42.24C243.627 42.0533 243.59 41.8533 243.59 41.64Z" fill="white"/>
<path d="M306.134 60.7638C305.815 58.6855 302.997 57.2381 299.809 57.5437C296.638 57.8442 294.305 59.7515 294.607 61.8349C294.903 63.9015 297.726 65.3658 300.92 65.077C304.096 64.7934 306.418 62.8524 306.134 60.7638ZM302.466 48.6992C301.535 46.7887 298.53 46.4855 295.723 47.9841C292.915 49.5384 291.379 52.3093 292.288 54.208C293.202 56.1237 296.202 56.41 298.999 54.8777C301.818 53.3571 303.353 50.5862 302.466 48.6992ZM301.116 72.1509C301.358 69.9759 299.061 67.8171 296.031 67.2454C292.975 66.7735 290.307 68.0637 290.06 70.2218C289.813 72.3799 292.088 74.527 295.142 75.0547C298.196 75.5823 300.871 74.2532 301.116 72.1509ZM291.883 41.7784C290.509 40.1685 287.547 40.5527 285.303 42.6911C283.059 44.8295 282.364 47.8794 283.771 49.5348C285.177 51.1901 288.112 50.7773 290.388 48.6844C292.588 46.5226 293.294 43.4506 291.883 41.7784ZM274.55 50.1261C272.943 50.5408 271.558 52.2892 271.341 53.9404C270.875 57.3814 274.831 60.0865 275.852 63.4444C276.873 66.8022 274.984 71.3211 277.389 73.8344C278.728 75.2704 281.276 75.7678 283.032 74.9944C285.453 73.9264 285.885 70.4956 287.181 68.1479C288.836 65.0454 292.795 61.9987 291.764 58.6071C290.738 55.2324 285.79 54.7826 282.651 53.2485C280.023 52.0013 277.336 49.4081 274.55 50.1261Z" fill="white"/>
<path d="M346.825 20.1944C346.588 18.6481 344.491 17.5711 342.119 17.7985C339.759 18.0221 338.024 19.4412 338.248 20.9914C338.469 22.529 340.569 23.6185 342.945 23.4037C345.308 23.1926 347.036 21.7484 346.825 20.1944ZM344.096 11.2177C343.403 9.79624 341.167 9.57067 339.079 10.6857C336.989 11.8421 335.846 13.9038 336.523 15.3166C337.203 16.7419 339.435 16.9549 341.516 15.8148C343.613 14.6835 344.756 12.6218 344.096 11.2177ZM343.091 28.667C343.271 27.0487 341.562 25.4424 339.307 25.017C337.034 24.6659 335.049 25.6259 334.865 27.2317C334.681 28.8374 336.373 30.4349 338.646 30.8275C340.919 31.2201 342.909 30.2312 343.091 28.667ZM336.221 6.06831C335.199 4.87048 332.995 5.15635 331.326 6.74741C329.656 8.33847 329.139 10.6078 330.185 11.8395C331.232 13.0711 333.415 12.764 335.109 11.2068C336.746 9.59822 337.271 7.31254 336.221 6.06831ZM323.324 12.2794C322.129 12.588 321.098 13.8889 320.937 15.1174C320.59 17.6777 323.534 19.6905 324.293 22.1889C325.053 24.6873 323.648 28.0496 325.437 29.9196C326.434 30.988 328.329 31.3581 329.635 30.7827C331.437 29.988 331.759 27.4354 332.722 25.6885C333.954 23.3801 336.9 21.1132 336.133 18.5897C335.369 16.0787 331.688 15.7441 329.352 14.6026C327.397 13.6747 325.398 11.7452 323.324 12.2794Z" fill="white"/>
<path d="M399.291 28.3875C399.119 27.2639 397.596 26.4813 395.872 26.6465C394.158 26.809 392.896 27.8402 393.059 28.9666C393.22 30.0839 394.746 30.8756 396.472 30.7194C398.19 30.5661 399.445 29.5167 399.291 28.3875ZM397.308 21.8647C396.805 20.8318 395.181 20.6679 393.663 21.4781C392.145 22.3184 391.314 23.8165 391.806 24.8431C392.3 25.8788 393.922 26.0336 395.434 25.2051C396.958 24.383 397.788 22.8849 397.308 21.8647ZM396.579 34.5439C396.71 33.368 395.468 32.2008 393.829 31.8918C392.177 31.6366 390.735 32.3342 390.601 33.501C390.467 34.6677 391.697 35.8286 393.349 36.1139C395 36.3991 396.446 35.6805 396.579 34.5439ZM391.587 18.123C390.844 17.2526 389.243 17.4603 388.029 18.6164C386.816 19.7725 386.44 21.4215 387.201 22.3165C387.961 23.2114 389.548 22.9883 390.778 21.8567C391.968 20.6879 392.35 19.0271 391.587 18.123ZM382.215 22.6362C381.347 22.8604 380.598 23.8056 380.48 24.6984C380.229 26.5588 382.368 28.0213 382.92 29.8367C383.471 31.6522 382.45 34.0953 383.75 35.4541C384.475 36.2305 385.852 36.4994 386.801 36.0813C388.111 35.5038 388.344 33.649 389.044 32.3797C389.94 30.7023 392.08 29.0551 391.522 27.2214C390.968 25.3969 388.293 25.1537 386.595 24.3243C385.175 23.65 383.722 22.248 382.215 22.6362Z" fill="white"/>
</g>
<defs>
<clipPath id="clip0_78_280">
<rect width="410" height="70" rx="35" fill="white"/>
</clipPath>
</defs>
</svg>
