<svg width="64" height="64" viewBox="0 0 64 64" fill="none" xmlns="http://www.w3.org/2000/svg">
<path d="M61.611 39.273C61.82 38.054 61.892 36.599 61.697 34.9L61.115 29.849L60.738 30.261C60.6641 29.2609 60.492 28.2704 60.224 27.304C61.279 21.12 61.175 13.079 59.88 3.249L59.715 2L58.477 2.164C51.329 3.123 44.586 6.189 39.487 9.676C37.174 9.176 34.682 8.91 32 8.91C29.316 8.91 26.826 9.176 24.514 9.676C19.414 6.19 12.671 3.123 5.522 2.164L4.284 2L4.119 3.25C2.824 13.08 2.721 21.121 3.775 27.305C3.50798 28.2716 3.33584 29.262 3.261 30.262L2.885 29.85L2.303 34.9C2.107 36.599 2.179 38.054 2.388 39.273L2 39.189V42.08C2 47.529 5.878 52.721 12.92 56.695C18.717 59.967 26.028 62 32 62C37.972 62 45.283 59.967 51.08 56.695C58.121 52.721 62 47.529 62 42.08V39.189L61.611 39.273ZM57.564 4.857C58.371 11.433 58.607 17.218 58.294 22.082C58.267 21.393 58.146 20.705 57.882 20.062L58.305 20L56.623 17.094C56.961 15.123 57.215 11.696 56.092 7.621C52.197 9.24 49.192 12.06 48.065 13.213C46.452 12.123 44.665 11.242 42.719 10.565C46.934 7.984 52.094 5.791 57.564 4.857ZM6.436 4.857C11.907 5.791 17.066 7.984 21.282 10.564C19.337 11.242 17.55 12.123 15.935 13.212C14.809 12.06 11.802 9.239 7.909 7.62C6.785 11.694 7.039 15.12 7.377 17.093L5.694 20L6.116 20.063C5.852 20.706 5.732 21.393 5.704 22.083C5.393 17.219 5.628 11.434 6.436 4.857ZM32 59.656C21.033 59.656 4.307 52.158 4.307 42.08L6.155 42.478C6.155 42.478 4.017 40.169 4.593 35.173L6.389 37.142C6.389 37.142 4.593 32.072 6.155 27.394L8.144 28.882C8.144 28.882 7.54 26.978 8.095 25.675L8.954 26.359C8.954 26.359 6.918 21.869 8.811 20.148C9.578 22.72 10.484 22.759 10.536 22.759H10.539C10.539 22.759 9.393 20.775 10.285 19.943C10.65 20.541 10.99 20.744 11.264 20.744C11.675 20.744 11.939 20.287 11.917 20.017C11.868 19.421 12.097 18.579 9.421 18.183C9.79 17.546 10.614 17.357 11.47 17.357C12.745 17.357 14.089 17.781 14.089 17.781C14.089 17.781 14.003 16.439 12.235 16.439L12.128 16.441C12.684 15.607 13.498 15.363 14.258 15.363C15.314 15.363 16.264 15.832 16.264 15.832L16.258 15.85C16.9746 15.3083 17.7277 14.8168 18.512 14.379C19.133 15.797 19.97 16.443 20.994 18.338C22.461 15.633 23.533 14.061 24.133 12.164C25.0466 11.9324 25.9715 11.7478 26.904 11.611C27.679 15.101 29.459 17.802 31.998 22.488C34.574 17.732 36.33 15.072 37.091 11.609C38.062 11.75 38.978 11.941 39.864 12.164C40.469 14.082 41.552 15.668 42.997 18.338C44.034 16.424 44.87 15.783 45.485 14.379C46.2696 14.8164 47.0228 15.3079 47.739 15.85L47.733 15.832C47.733 15.832 48.684 15.363 49.739 15.363C50.499 15.363 51.313 15.607 51.87 16.441L51.763 16.439C49.995 16.439 49.909 17.781 49.909 17.781C49.909 17.781 51.253 17.355 52.528 17.357C53.382 17.357 54.208 17.546 54.575 18.183C51.901 18.579 52.13 19.421 52.081 20.017C52.06 20.287 52.323 20.744 52.733 20.744C53.006 20.744 53.346 20.541 53.712 19.943C54.605 20.775 53.458 22.759 53.458 22.759H53.462C53.513 22.759 54.419 22.72 55.185 20.148C57.08 21.869 55.044 26.359 55.044 26.359L55.903 25.675C56.458 26.978 55.854 28.882 55.854 28.882L57.842 27.394C59.403 32.072 57.608 37.142 57.608 37.142L59.403 35.173C59.981 40.169 57.842 42.478 57.842 42.478L59.69 42.08C59.691 52.158 42.965 59.656 32 59.656Z" fill="black"/>
<path d="M32 43C32.744 43 33.669 42.713 34.638 41.803C36.173 40.362 36.62 38.692 36.042 38.018C35.232 37.072 32.745 37 32 37C31.258 37 28.768 37.072 27.957 38.018C27.381 38.692 27.826 40.362 29.363 41.803C30.333 42.713 31.258 43 32 43ZM18.563 38.855C16.994 38.896 15.41 38.699 14.044 38.105C13.7128 37.9609 13.3978 37.7822 13.104 37.572C12.9724 37.4786 12.8487 37.3746 12.734 37.261L12.679 37.198C12.681 37.198 12.683 37.204 12.681 37.204C12.6756 37.194 12.6696 37.1843 12.663 37.175L12.551 36.935C12.2517 36.2344 12.0212 35.5063 11.863 34.761C11.529 33.279 11.459 31.734 11.842 30.327C12.195 28.942 13.071 27.622 14.132 26.614C15.196 25.593 16.577 24.973 18.028 25.014C18.384 25.028 18.766 25.069 19.103 25.153C19.482 25.245 19.833 25.352 20.177 25.499C20.8748 25.7895 21.5095 26.2126 22.046 26.745C23.169 27.8 23.898 29.28 24.302 30.839C24.2158 29.1697 23.6169 27.5676 22.587 26.251C22.039 25.5821 21.3649 25.0272 20.603 24.618C20.224 24.412 19.8249 24.2451 19.412 24.12C18.9871 23.9854 18.5495 23.895 18.106 23.85C16.306 23.637 14.489 24.411 13.185 25.561C11.884 26.735 10.884 28.202 10.393 29.942C9.95405 31.669 10.068 33.448 10.483 35.092C10.701 35.918 10.983 36.711 11.362 37.492L11.518 37.791L11.581 37.893L11.678 38.016C11.738 38.084 11.78 38.127 11.829 38.176C12.02 38.356 12.209 38.492 12.404 38.617C12.797 38.857 13.2 39.043 13.611 39.191C15.261 39.783 16.989 39.804 18.623 39.586C20.2415 39.3347 21.8191 38.8682 23.314 38.199C21.731 38.547 20.147 38.85 18.563 38.855ZM50.8161 25.563C49.5131 24.413 47.697 23.639 45.896 23.852C45.4523 23.897 45.0143 23.9874 44.5891 24.122C44.1761 24.2469 43.777 24.4138 43.398 24.62C42.636 25.029 41.9619 25.5838 41.414 26.253C40.3842 27.5696 39.7853 29.1717 39.699 30.841C40.103 29.282 40.8321 27.802 41.955 26.747C42.4916 26.2146 43.1263 25.7915 43.8241 25.501C44.1719 25.3563 44.5311 25.2406 44.898 25.155C45.2505 25.0732 45.6103 25.0266 45.972 25.016C47.423 24.975 48.8041 25.594 49.868 26.616C50.9291 27.624 51.806 28.944 52.159 30.329C52.542 31.735 52.472 33.28 52.1381 34.763C51.9781 35.507 51.7451 36.251 51.4491 36.937L51.3381 37.179C51.3301 37.191 51.32 37.204 51.32 37.206C51.3181 37.206 51.32 37.2 51.322 37.2L51.267 37.263C51.1521 37.3766 51.028 37.4806 50.896 37.574C50.6025 37.784 50.2878 37.9627 49.9571 38.107C48.59 38.701 47.008 38.898 45.437 38.857C43.8531 38.851 42.269 38.548 40.687 38.203C42.1814 38.872 43.7583 39.3384 45.376 39.59C47.011 39.809 48.739 39.787 50.39 39.195C50.8 39.047 51.2041 38.861 51.5951 38.621C51.792 38.496 51.98 38.359 52.1711 38.18C52.222 38.131 52.2631 38.088 52.3231 38.02L52.419 37.897L52.4831 37.795L52.6371 37.496C53.0181 36.715 53.299 35.922 53.5181 35.096C53.9321 33.451 54.0451 31.674 53.6081 29.946C53.1171 28.203 52.1171 26.736 50.8161 25.563Z" fill="black"/>
<path d="M44.002 37C46.2111 37 48.002 34.9853 48.002 32.5C48.002 30.0147 46.2111 28 44.002 28C41.7928 28 40.002 30.0147 40.002 32.5C40.002 34.9853 41.7928 37 44.002 37Z" fill="black"/>
<path d="M20.002 37C22.2111 37 24.002 34.9853 24.002 32.5C24.002 30.0147 22.2111 28 20.002 28C17.7928 28 16.002 30.0147 16.002 32.5C16.002 34.9853 17.7928 37 20.002 37Z" fill="black"/>
<path d="M43.607 45.043C40.959 44.529 37.045 44 32 44C26.957 44 23.043 44.529 20.395 45.043C19.364 45.246 19.002 46.027 19.002 46.65C19.002 52.307 23.293 58 32 58C40.708 58 45.001 52.307 45.001 46.65C45.002 46.027 44.639 45.246 43.607 45.043ZM32 56C29.547 56 27.38 55.471 25.5 54.568C27.315 53.596 29.471 53 32 53C34.531 53 36.689 53.596 38.5 54.568C36.623 55.471 34.455 56 32 56Z" fill="black"/>
</svg>
