<svg width="306" height="63" viewBox="0 0 306 63" fill="none" xmlns="http://www.w3.org/2000/svg">
<rect x="16" y="5" width="290" height="52" rx="26" fill="#5FD568"/>
<path d="M97.468 25.912H99.964V37H97.468V32.296H93.276V37H90.78V25.912H93.276V30.152H97.468V25.912ZM105.586 35.336C105.821 35.336 106.045 35.3307 106.258 35.32C106.471 35.3093 106.642 35.2933 106.77 35.272V33.464C106.674 33.4427 106.53 33.4213 106.338 33.4C106.146 33.3787 105.97 33.368 105.81 33.368C105.586 33.368 105.373 33.384 105.17 33.416C104.978 33.4373 104.807 33.4853 104.658 33.56C104.509 33.6347 104.391 33.736 104.306 33.864C104.221 33.992 104.178 34.152 104.178 34.344C104.178 34.7173 104.301 34.9787 104.546 35.128C104.802 35.2667 105.149 35.336 105.586 35.336ZM105.394 28.36C106.098 28.36 106.685 28.44 107.154 28.6C107.623 28.76 107.997 28.9893 108.274 29.288C108.562 29.5867 108.765 29.9493 108.882 30.376C108.999 30.8027 109.058 31.2773 109.058 31.8V36.76C108.717 36.8347 108.242 36.92 107.634 37.016C107.026 37.1227 106.29 37.176 105.426 37.176C104.882 37.176 104.386 37.128 103.938 37.032C103.501 36.936 103.122 36.7813 102.802 36.568C102.482 36.344 102.237 36.056 102.066 35.704C101.895 35.352 101.81 34.92 101.81 34.408C101.81 33.9173 101.906 33.5013 102.098 33.16C102.301 32.8187 102.567 32.5467 102.898 32.344C103.229 32.1413 103.607 31.9973 104.034 31.912C104.461 31.816 104.903 31.768 105.362 31.768C105.671 31.768 105.943 31.784 106.178 31.816C106.423 31.8373 106.621 31.8693 106.77 31.912V31.688C106.77 31.2827 106.647 30.9573 106.402 30.712C106.157 30.4667 105.73 30.344 105.122 30.344C104.717 30.344 104.317 30.376 103.922 30.44C103.527 30.4933 103.186 30.5733 102.898 30.68L102.594 28.76C102.733 28.7173 102.903 28.6747 103.106 28.632C103.319 28.5787 103.549 28.536 103.794 28.504C104.039 28.4613 104.295 28.4293 104.562 28.408C104.839 28.376 105.117 28.36 105.394 28.36ZM118.462 28.584V37H116.078V30.568H113.598V37H111.214V28.584H118.462ZM128.362 28.584V37H125.962C125.962 36.4667 125.967 35.9387 125.978 35.416C125.989 34.8827 125.999 34.392 126.01 33.944C126.021 33.496 126.031 33.1067 126.042 32.776C126.063 32.4347 126.074 32.184 126.074 32.024C125.765 32.4613 125.455 32.904 125.146 33.352C124.837 33.8 124.538 34.2427 124.25 34.68C123.973 35.1067 123.706 35.5173 123.45 35.912C123.205 36.3067 122.986 36.6693 122.794 37H120.698V28.584H123.082C123.082 29.1173 123.077 29.6293 123.066 30.12C123.066 30.6 123.061 31.0373 123.05 31.432C123.039 31.8267 123.029 32.1733 123.018 32.472C123.007 32.76 123.002 32.984 123.002 33.144C123.642 32.2053 124.229 31.3627 124.762 30.616C125.306 29.8693 125.834 29.192 126.346 28.584H128.362ZM130.204 32.792C130.204 32.184 130.3 31.6133 130.492 31.08C130.695 30.536 130.983 30.0667 131.356 29.672C131.73 29.2667 132.183 28.9467 132.716 28.712C133.25 28.4773 133.858 28.36 134.54 28.36C134.988 28.36 135.399 28.4027 135.772 28.488C136.146 28.5627 136.508 28.6747 136.86 28.824L136.364 30.728C136.14 30.6427 135.895 30.568 135.628 30.504C135.362 30.44 135.063 30.408 134.732 30.408C134.028 30.408 133.5 30.6267 133.148 31.064C132.807 31.5013 132.636 32.0773 132.636 32.792C132.636 33.5493 132.796 34.136 133.116 34.552C133.447 34.968 134.018 35.176 134.828 35.176C135.116 35.176 135.426 35.1493 135.756 35.096C136.087 35.0427 136.391 34.9573 136.668 34.84L137.004 36.792C136.727 36.9093 136.38 37.0107 135.964 37.096C135.548 37.1813 135.09 37.224 134.588 37.224C133.82 37.224 133.159 37.112 132.604 36.888C132.05 36.6533 131.591 36.3387 131.228 35.944C130.876 35.5493 130.615 35.0853 130.444 34.552C130.284 34.008 130.204 33.4213 130.204 32.792ZM141.82 35.336C142.055 35.336 142.279 35.3307 142.492 35.32C142.706 35.3093 142.876 35.2933 143.004 35.272V33.464C142.908 33.4427 142.764 33.4213 142.572 33.4C142.38 33.3787 142.204 33.368 142.044 33.368C141.82 33.368 141.607 33.384 141.404 33.416C141.212 33.4373 141.042 33.4853 140.892 33.56C140.743 33.6347 140.626 33.736 140.54 33.864C140.455 33.992 140.412 34.152 140.412 34.344C140.412 34.7173 140.535 34.9787 140.78 35.128C141.036 35.2667 141.383 35.336 141.82 35.336ZM141.628 28.36C142.332 28.36 142.919 28.44 143.388 28.6C143.858 28.76 144.231 28.9893 144.508 29.288C144.796 29.5867 144.999 29.9493 145.116 30.376C145.234 30.8027 145.292 31.2773 145.292 31.8V36.76C144.951 36.8347 144.476 36.92 143.868 37.016C143.26 37.1227 142.524 37.176 141.66 37.176C141.116 37.176 140.62 37.128 140.172 37.032C139.735 36.936 139.356 36.7813 139.036 36.568C138.716 36.344 138.471 36.056 138.3 35.704C138.13 35.352 138.044 34.92 138.044 34.408C138.044 33.9173 138.14 33.5013 138.332 33.16C138.535 32.8187 138.802 32.5467 139.132 32.344C139.463 32.1413 139.842 31.9973 140.268 31.912C140.695 31.816 141.138 31.768 141.596 31.768C141.906 31.768 142.178 31.784 142.412 31.816C142.658 31.8373 142.855 31.8693 143.004 31.912V31.688C143.004 31.2827 142.882 30.9573 142.636 30.712C142.391 30.4667 141.964 30.344 141.356 30.344C140.951 30.344 140.551 30.376 140.156 30.44C139.762 30.4933 139.42 30.5733 139.132 30.68L138.828 28.76C138.967 28.7173 139.138 28.6747 139.34 28.632C139.554 28.5787 139.783 28.536 140.028 28.504C140.274 28.4613 140.53 28.4293 140.796 28.408C141.074 28.376 141.351 28.36 141.628 28.36ZM154.408 30.536H151.72V37H149.336V30.536H146.648V28.584H154.408V30.536ZM159.422 35.336C159.86 35.336 160.201 35.256 160.446 35.096C160.702 34.9253 160.83 34.6533 160.83 34.28C160.83 34.088 160.788 33.928 160.702 33.8C160.617 33.6613 160.5 33.5547 160.35 33.48C160.201 33.3947 160.025 33.336 159.822 33.304C159.63 33.272 159.422 33.256 159.198 33.256C159.038 33.256 158.862 33.2667 158.67 33.288C158.478 33.3093 158.334 33.3307 158.238 33.352V35.272C158.366 35.2933 158.537 35.3093 158.75 35.32C158.964 35.3307 159.188 35.336 159.422 35.336ZM158.238 31.576C158.388 31.5333 158.58 31.5013 158.814 31.48C159.06 31.448 159.337 31.432 159.646 31.432C160.148 31.432 160.612 31.4907 161.038 31.608C161.476 31.7253 161.854 31.9067 162.174 32.152C162.494 32.3867 162.745 32.6907 162.926 33.064C163.108 33.4267 163.198 33.8533 163.198 34.344C163.198 34.8347 163.113 35.2613 162.942 35.624C162.772 35.976 162.526 36.2693 162.206 36.504C161.886 36.728 161.502 36.8933 161.054 37C160.617 37.1173 160.126 37.176 159.582 37.176C158.878 37.176 158.233 37.1387 157.646 37.064C157.06 37 156.462 36.8933 155.854 36.744V28.584H158.238V31.576ZM171.113 35.24C171.263 35.2613 171.46 35.2827 171.705 35.304C171.961 35.3147 172.196 35.32 172.409 35.32C172.943 35.32 173.359 35.256 173.657 35.128C173.956 34.9893 174.105 34.744 174.105 34.392C174.105 34.0507 173.967 33.816 173.689 33.688C173.423 33.5493 173.028 33.48 172.505 33.48H171.113V35.24ZM172.457 31.88C172.852 31.88 173.172 31.832 173.417 31.736C173.663 31.6293 173.785 31.4053 173.785 31.064C173.785 30.744 173.647 30.5253 173.369 30.408C173.092 30.2907 172.729 30.232 172.281 30.232C172.132 30.232 171.935 30.2427 171.689 30.264C171.455 30.2747 171.263 30.2907 171.113 30.312V31.88H172.457ZM172.377 37.16C172.079 37.16 171.759 37.1493 171.417 37.128C171.076 37.1067 170.74 37.0747 170.409 37.032C170.079 37 169.764 36.9627 169.465 36.92C169.177 36.8667 168.932 36.8187 168.729 36.776V28.712C168.932 28.6693 169.177 28.632 169.465 28.6C169.764 28.5573 170.079 28.52 170.409 28.488C170.74 28.456 171.076 28.4347 171.417 28.424C171.759 28.4027 172.079 28.392 172.377 28.392C173.071 28.392 173.652 28.4613 174.121 28.6C174.601 28.7387 174.985 28.92 175.273 29.144C175.572 29.368 175.785 29.6187 175.913 29.896C176.041 30.1733 176.105 30.4507 176.105 30.728C176.105 31.1013 176.015 31.4427 175.833 31.752C175.652 32.0613 175.423 32.2853 175.145 32.424C175.295 32.488 175.444 32.5787 175.593 32.696C175.753 32.8133 175.897 32.9573 176.025 33.128C176.153 33.288 176.255 33.4853 176.329 33.72C176.415 33.944 176.457 34.2053 176.457 34.504C176.457 34.8453 176.388 35.176 176.249 35.496C176.121 35.816 175.897 36.0987 175.577 36.344C175.257 36.5893 174.836 36.7867 174.313 36.936C173.791 37.0853 173.145 37.16 172.377 37.16ZM189.736 27.096C189.864 27.5333 190.002 28.0293 190.152 28.584C190.312 29.128 190.477 29.6933 190.648 30.28C190.829 30.8667 191.01 31.4533 191.192 32.04C191.373 32.6267 191.549 33.1707 191.72 33.672C191.858 33.128 191.997 32.536 192.136 31.896C192.285 31.256 192.424 30.5947 192.552 29.912C192.68 29.2293 192.802 28.552 192.92 27.88C193.048 27.1973 193.165 26.5413 193.272 25.912H195.864C195.49 27.768 195.058 29.6507 194.568 31.56C194.088 33.4693 193.565 35.2827 193 37H190.712C190.338 35.976 189.976 34.904 189.624 33.784C189.272 32.6533 188.925 31.5227 188.584 30.392C188.242 31.5227 187.901 32.6533 187.56 33.784C187.218 34.904 186.861 35.976 186.488 37H184.2C183.634 35.2827 183.106 33.4693 182.616 31.56C182.136 29.6507 181.709 27.768 181.336 25.912H184.04C184.146 26.5413 184.264 27.1973 184.392 27.88C184.52 28.552 184.653 29.2293 184.792 29.912C184.93 30.5947 185.069 31.256 185.208 31.896C185.357 32.536 185.506 33.128 185.656 33.672C185.848 33.1493 186.034 32.5947 186.216 32.008C186.397 31.4213 186.573 30.8347 186.744 30.248C186.914 29.6613 187.069 29.096 187.208 28.552C187.357 28.008 187.49 27.5227 187.608 27.096H189.736ZM197.308 37V24.968L199.692 24.584V28.616C199.852 28.5627 200.054 28.5147 200.299 28.472C200.556 28.4187 200.801 28.392 201.036 28.392C201.718 28.392 202.284 28.488 202.732 28.68C203.19 28.8613 203.553 29.1227 203.82 29.464C204.097 29.8053 204.289 30.2107 204.396 30.68C204.513 31.1493 204.572 31.672 204.572 32.248V37H202.188V32.536C202.188 31.768 202.086 31.224 201.884 30.904C201.692 30.584 201.329 30.424 200.796 30.424C200.582 30.424 200.38 30.4453 200.188 30.488C200.006 30.52 199.841 30.5573 199.692 30.6V37H197.308ZM209.945 35.336C210.18 35.336 210.404 35.3307 210.617 35.32C210.831 35.3093 211.001 35.2933 211.129 35.272V33.464C211.033 33.4427 210.889 33.4213 210.697 33.4C210.505 33.3787 210.329 33.368 210.169 33.368C209.945 33.368 209.732 33.384 209.529 33.416C209.337 33.4373 209.167 33.4853 209.017 33.56C208.868 33.6347 208.751 33.736 208.665 33.864C208.58 33.992 208.537 34.152 208.537 34.344C208.537 34.7173 208.66 34.9787 208.905 35.128C209.161 35.2667 209.508 35.336 209.945 35.336ZM209.753 28.36C210.457 28.36 211.044 28.44 211.513 28.6C211.983 28.76 212.356 28.9893 212.633 29.288C212.921 29.5867 213.124 29.9493 213.241 30.376C213.359 30.8027 213.417 31.2773 213.417 31.8V36.76C213.076 36.8347 212.601 36.92 211.993 37.016C211.385 37.1227 210.649 37.176 209.785 37.176C209.241 37.176 208.745 37.128 208.297 37.032C207.86 36.936 207.481 36.7813 207.161 36.568C206.841 36.344 206.596 36.056 206.425 35.704C206.255 35.352 206.169 34.92 206.169 34.408C206.169 33.9173 206.265 33.5013 206.457 33.16C206.66 32.8187 206.927 32.5467 207.257 32.344C207.588 32.1413 207.967 31.9973 208.393 31.912C208.82 31.816 209.263 31.768 209.721 31.768C210.031 31.768 210.303 31.784 210.537 31.816C210.783 31.8373 210.98 31.8693 211.129 31.912V31.688C211.129 31.2827 211.007 30.9573 210.761 30.712C210.516 30.4667 210.089 30.344 209.481 30.344C209.076 30.344 208.676 30.376 208.281 30.44C207.887 30.4933 207.545 30.5733 207.257 30.68L206.953 28.76C207.092 28.7173 207.263 28.6747 207.465 28.632C207.679 28.5787 207.908 28.536 208.153 28.504C208.399 28.4613 208.655 28.4293 208.921 28.408C209.199 28.376 209.476 28.36 209.753 28.36ZM215.493 26.488L217.877 26.104V28.584H220.741V30.568H217.877V33.528C217.877 34.0293 217.962 34.4293 218.133 34.728C218.314 35.0267 218.672 35.176 219.205 35.176C219.461 35.176 219.722 35.1547 219.989 35.112C220.266 35.0587 220.517 34.9893 220.741 34.904L221.077 36.76C220.789 36.8773 220.469 36.9787 220.117 37.064C219.765 37.1493 219.333 37.192 218.821 37.192C218.17 37.192 217.632 37.1067 217.205 36.936C216.778 36.7547 216.437 36.5093 216.181 36.2C215.925 35.88 215.744 35.496 215.637 35.048C215.541 34.6 215.493 34.104 215.493 33.56V26.488ZM225.099 35.288C225.536 35.288 225.845 35.2453 226.027 35.16C226.208 35.0747 226.299 34.9093 226.299 34.664C226.299 34.472 226.181 34.3067 225.947 34.168C225.712 34.0187 225.355 33.8533 224.875 33.672C224.501 33.5333 224.16 33.3893 223.851 33.24C223.552 33.0907 223.296 32.9147 223.083 32.712C222.869 32.4987 222.704 32.248 222.587 31.96C222.469 31.672 222.411 31.3253 222.411 30.92C222.411 30.1307 222.704 29.5067 223.291 29.048C223.877 28.5893 224.683 28.36 225.707 28.36C226.219 28.36 226.709 28.408 227.179 28.504C227.648 28.5893 228.021 28.6853 228.299 28.792L227.883 30.648C227.605 30.552 227.301 30.4667 226.971 30.392C226.651 30.3173 226.288 30.28 225.883 30.28C225.136 30.28 224.763 30.488 224.763 30.904C224.763 31 224.779 31.0853 224.811 31.16C224.843 31.2347 224.907 31.3093 225.003 31.384C225.099 31.448 225.227 31.5227 225.387 31.608C225.557 31.6827 225.771 31.768 226.027 31.864C226.549 32.056 226.981 32.248 227.323 32.44C227.664 32.6213 227.931 32.824 228.123 33.048C228.325 33.2613 228.464 33.5013 228.539 33.768C228.624 34.0347 228.667 34.344 228.667 34.696C228.667 35.528 228.352 36.1573 227.723 36.584C227.104 37.0107 226.224 37.224 225.083 37.224C224.336 37.224 223.712 37.16 223.211 37.032C222.72 36.904 222.379 36.7973 222.187 36.712L222.587 34.776C222.992 34.936 223.408 35.064 223.835 35.16C224.261 35.2453 224.683 35.288 225.099 35.288ZM238.032 37C237.915 36.616 237.781 36.2213 237.632 35.816C237.493 35.4107 237.355 35.0053 237.216 34.6H232.896C232.757 35.0053 232.613 35.4107 232.464 35.816C232.325 36.2213 232.197 36.616 232.08 37H229.488C229.904 35.8053 230.299 34.7013 230.672 33.688C231.045 32.6747 231.408 31.72 231.76 30.824C232.123 29.928 232.475 29.08 232.816 28.28C233.168 27.4693 233.531 26.68 233.904 25.912H236.288C236.651 26.68 237.008 27.4693 237.36 28.28C237.712 29.08 238.064 29.928 238.416 30.824C238.779 31.72 239.147 32.6747 239.52 33.688C239.893 34.7013 240.288 35.8053 240.704 37H238.032ZM235.04 28.424C234.987 28.584 234.907 28.8027 234.8 29.08C234.693 29.3573 234.571 29.6773 234.432 30.04C234.293 30.4027 234.139 30.8027 233.968 31.24C233.808 31.6773 233.643 32.136 233.472 32.616H236.624C236.453 32.136 236.288 31.6773 236.128 31.24C235.968 30.8027 235.813 30.4027 235.664 30.04C235.525 29.6773 235.403 29.3573 235.296 29.08C235.189 28.8027 235.104 28.584 235.04 28.424ZM247.371 32.856C247.371 32.12 247.206 31.5333 246.875 31.096C246.545 30.648 246.054 30.424 245.403 30.424C245.19 30.424 244.993 30.4347 244.811 30.456C244.63 30.4667 244.481 30.4827 244.363 30.504V34.808C244.513 34.904 244.705 34.984 244.939 35.048C245.185 35.112 245.43 35.144 245.675 35.144C246.806 35.144 247.371 34.3813 247.371 32.856ZM249.803 32.792C249.803 33.4427 249.723 34.0347 249.563 34.568C249.403 35.1013 249.169 35.56 248.859 35.944C248.55 36.328 248.166 36.6267 247.707 36.84C247.249 37.0533 246.721 37.16 246.123 37.16C245.793 37.16 245.483 37.128 245.195 37.064C244.907 37 244.63 36.9093 244.363 36.792V39.96H241.979V28.872C242.193 28.808 242.438 28.7493 242.715 28.696C242.993 28.632 243.281 28.5787 243.579 28.536C243.889 28.4933 244.198 28.4613 244.507 28.44C244.827 28.408 245.131 28.392 245.419 28.392C246.113 28.392 246.731 28.4987 247.275 28.712C247.819 28.9147 248.278 29.208 248.651 29.592C249.025 29.9653 249.307 30.424 249.499 30.968C249.702 31.512 249.803 32.12 249.803 32.792ZM257.028 32.856C257.028 32.12 256.862 31.5333 256.532 31.096C256.201 30.648 255.71 30.424 255.06 30.424C254.846 30.424 254.649 30.4347 254.468 30.456C254.286 30.4667 254.137 30.4827 254.02 30.504V34.808C254.169 34.904 254.361 34.984 254.596 35.048C254.841 35.112 255.086 35.144 255.332 35.144C256.462 35.144 257.028 34.3813 257.028 32.856ZM259.46 32.792C259.46 33.4427 259.38 34.0347 259.22 34.568C259.06 35.1013 258.825 35.56 258.516 35.944C258.206 36.328 257.822 36.6267 257.364 36.84C256.905 37.0533 256.377 37.16 255.78 37.16C255.449 37.16 255.14 37.128 254.852 37.064C254.564 37 254.286 36.9093 254.02 36.792V39.96H251.636V28.872C251.849 28.808 252.094 28.7493 252.372 28.696C252.649 28.632 252.937 28.5787 253.236 28.536C253.545 28.4933 253.854 28.4613 254.164 28.44C254.484 28.408 254.788 28.392 255.076 28.392C255.769 28.392 256.388 28.4987 256.932 28.712C257.476 28.9147 257.934 29.208 258.308 29.592C258.681 29.9653 258.964 30.424 259.156 30.968C259.358 31.512 259.46 32.12 259.46 32.792Z" fill="white"/>
<g clip-path="url(#clip0_78_46)">
<path d="M1.3443 31.123C1.34282 36.4162 2.7367 41.5847 5.38712 46.1402L1.09082 61.7051L17.144 57.5285C21.5841 59.9269 26.5589 61.1836 31.6143 61.184H31.6276C48.3165 61.184 61.9016 47.7091 61.9087 31.1467C61.9119 23.121 58.7649 15.5742 53.0471 9.89638C47.3304 4.21906 39.7273 1.09079 31.6264 1.08713C14.9356 1.08713 1.35143 14.5613 1.34454 31.123" fill="url(#paint0_linear_78_46)"/>
<path d="M0.26332 31.1132C0.261598 36.5969 1.70543 41.9502 4.45036 46.6688L0 62.7917L16.6288 58.4655C21.2106 60.9442 26.3692 62.2511 31.6184 62.253H31.6319C48.9195 62.253 62.9926 48.2934 63 31.1381C63.003 22.8241 59.7427 15.006 53.8207 9.12474C47.898 3.24426 40.023 0.0034186 31.6319 0C14.3414 0 0.270211 13.9577 0.26332 31.1132ZM10.1664 45.8562L9.54548 44.8782C6.93541 40.7603 5.55778 36.0016 5.55975 31.1152C5.56516 16.8559 17.2605 5.25488 31.6418 5.25488C38.6062 5.25781 45.1513 7.95167 50.0742 12.8393C54.9968 17.7274 57.7055 24.2252 57.7038 31.1362C57.6974 45.3954 46.0018 56.9979 31.6319 56.9979H31.6216C26.9426 56.9955 22.3537 55.7487 18.3517 53.3925L17.3993 52.8321L7.53145 55.3992L10.1664 45.8562Z" fill="url(#paint1_linear_78_46)"/>
<path d="M23.7918 18.1059C23.2046 16.811 22.5867 16.7849 22.0283 16.7621C21.5711 16.7426 21.0484 16.7441 20.5262 16.7441C20.0034 16.7441 19.1542 16.9392 18.4363 17.7169C17.7177 18.4954 15.6929 20.3766 15.6929 24.2027C15.6929 28.0289 18.5015 31.7268 18.8931 32.2462C19.2851 32.7646 24.3153 40.8677 32.2818 43.985C38.9027 46.5756 40.2501 46.0603 41.687 45.9304C43.1242 45.801 46.3244 44.0497 46.9773 42.2337C47.6307 40.4179 47.6307 38.8615 47.4348 38.5362C47.2389 38.2122 46.7162 38.0176 45.9324 37.6288C45.1486 37.2401 41.295 35.3584 40.5766 35.0988C39.858 34.8395 39.3356 34.7101 38.8129 35.4888C38.2902 36.2663 36.7893 38.0176 36.3318 38.5362C35.8748 39.0561 35.4173 39.1208 34.6337 38.7318C33.8494 38.3416 31.3252 37.5214 28.3305 34.8722C26.0005 32.8108 24.4275 30.2651 23.9702 29.4864C23.513 28.7089 23.9213 28.2875 24.3143 27.9C24.6664 27.5515 25.0983 26.9918 25.4906 26.5379C25.8814 26.0837 26.0118 25.7597 26.2732 25.241C26.5348 24.7219 26.4039 24.2677 26.2082 23.8787C26.0118 23.4897 24.4888 19.6435 23.7918 18.1059Z" fill="white"/>
</g>
<defs>
<linearGradient id="paint0_linear_78_46" x1="3041.99" y1="6062.88" x2="3041.99" y2="1.08713" gradientUnits="userSpaceOnUse">
<stop stop-color="#1FAF38"/>
<stop offset="1" stop-color="#60D669"/>
</linearGradient>
<linearGradient id="paint1_linear_78_46" x1="3150" y1="6279.17" x2="3150" y2="0" gradientUnits="userSpaceOnUse">
<stop stop-color="#F9F9F9"/>
<stop offset="1" stop-color="white"/>
</linearGradient>
<clipPath id="clip0_78_46">
<rect width="63" height="63" fill="white"/>
</clipPath>
</defs>
</svg>
